<?xml version="1.0" standalone="no"?>
<!DOCTYPE svg PUBLIC "-//W3C//DTD SVG 20010904//EN"
 "http://www.w3.org/TR/2001/REC-SVG-20010904/DTD/svg10.dtd">
<svg version="1.0" xmlns="http://www.w3.org/2000/svg"
 width="881.000000pt" height="873.000000pt" viewBox="0 0 881.000000 873.000000"
 preserveAspectRatio="xMidYMid meet">

<g transform="translate(0.000000,873.000000) scale(0.100000,-0.100000)"
fill="#000000" stroke="none">
<path d="M3702 8710 c-101 -36 -148 -80 -187 -173 -63 -151 -70 -476 -19 -862
8 -60 17 -134 20 -162 l7 -53 -377 0 c-294 0 -376 3 -376 13 0 6 7 82 15 167
22 218 22 528 0 655 -45 264 -143 380 -325 387 -48 2 -62 -2 -101 -29 -93 -64
-156 -195 -185 -385 -21 -133 -20 -440 0 -648 9 -85 16 -158 16 -161 0 -3
-102 -9 -227 -13 -314 -10 -310 -10 -382 -39 -170 -71 -276 -170 -321 -303
-22 -62 -22 -71 -14 -357 l5 -198 -133 8 c-235 14 -631 9 -738 -10 -204 -37
-312 -93 -361 -189 -16 -32 -19 -55 -17 -135 l3 -97 43 -33 c53 -40 167 -77
304 -97 149 -22 470 -38 701 -34 l197 3 0 -349 0 -348 -43 6 c-267 38 -755 53
-897 27 -181 -33 -280 -106 -280 -206 0 -14 -7 -36 -16 -50 -12 -19 -13 -31
-4 -64 28 -106 141 -184 325 -223 87 -19 132 -22 345 -22 160 0 299 6 400 17
85 9 158 17 163 17 4 0 7 -175 7 -388 l0 -388 -103 18 c-320 54 -674 62 -825
19 -148 -43 -219 -95 -273 -203 l-31 -61 18 -45 c38 -100 157 -181 329 -224
83 -21 110 -23 370 -22 194 1 315 6 395 17 63 8 116 15 116 14 1 -1 4 -165 8
-365 6 -341 5 -362 -11 -362 -10 0 -92 10 -183 21 -238 29 -643 37 -768 15
-113 -20 -193 -55 -228 -102 -21 -27 -28 -52 -36 -121 -12 -112 0 -157 59
-223 141 -157 514 -206 1110 -144 l63 6 0 -113 c0 -181 17 -338 45 -426 59
-188 193 -314 390 -369 44 -13 116 -18 273 -21 192 -5 212 -7 208 -22 -34
-116 -43 -627 -13 -776 34 -165 98 -298 187 -383 48 -47 134 -70 197 -53 123
33 194 150 228 376 24 159 18 615 -10 818 l-5 37 351 0 352 0 -7 -52 c-14
-123 -18 -536 -7 -643 38 -353 153 -535 337 -535 154 0 220 139 245 514 10
158 -1 610 -17 688 l-6 28 401 0 c247 0 401 -4 401 -10 0 -5 -7 -87 -17 -182
-23 -245 -23 -641 0 -768 38 -207 130 -314 252 -295 19 3 51 7 70 10 77 13
141 102 175 248 37 161 45 269 44 640 l0 357 363 0 363 0 0 -27 c0 -16 -7 -91
-15 -168 -43 -414 -24 -765 47 -910 51 -101 93 -133 198 -147 36 -5 82 -11
103 -14 78 -12 147 69 176 206 33 155 31 513 -4 870 -8 80 -15 155 -15 166 0
21 5 22 193 27 221 6 331 28 466 94 106 52 217 162 266 264 63 135 93 284 94
473 l1 99 43 -6 c115 -16 417 -29 542 -23 337 15 516 79 579 209 23 46 25 58
15 79 -8 19 -8 31 0 46 6 11 11 40 11 63 0 84 -93 141 -283 173 -138 24 -434
36 -689 29 l-218 -6 0 339 0 340 98 -13 c363 -46 668 -33 854 37 82 31 171 93
211 148 56 76 61 90 49 131 -6 20 -14 50 -17 66 -10 45 -89 116 -160 143 -166
64 -496 69 -982 16 l-63 -7 0 360 0 360 283 6 c646 12 916 103 894 301 -18
158 -86 222 -284 263 -110 23 -497 21 -729 -4 l-171 -18 -6 239 c-4 132 -7
287 -7 346 l0 106 333 0 c356 -1 490 11 635 55 166 52 252 135 252 243 0 97
-61 176 -165 215 -122 46 -218 55 -560 56 -176 0 -362 -4 -412 -8 l-93 -8 0
171 c0 165 -1 175 -30 257 -55 154 -105 239 -200 333 -153 154 -283 199 -601
207 l-195 5 13 52 c37 143 57 330 57 546 0 190 -3 224 -22 295 -44 158 -117
269 -216 325 -57 33 -120 39 -145 15 -9 -9 -32 -26 -51 -38 -69 -45 -115 -144
-141 -302 -24 -148 -8 -665 27 -862 l6 -33 -366 0 c-250 0 -365 3 -361 10 14
22 35 364 35 560 0 357 -36 526 -132 622 -66 66 -134 71 -267 19 -104 -40
-157 -122 -186 -285 -28 -162 -16 -512 29 -834 7 -51 10 -95 7 -97 -2 -3 -182
-5 -399 -5 l-394 0 9 123 c4 67 8 259 8 427 0 252 -3 320 -18 392 -23 116 -52
189 -94 238 -62 72 -120 89 -201 60z m117 -110 c63 -63 98 -221 108 -480 5
-148 -8 -477 -24 -602 l-6 -48 -137 0 -138 0 -11 68 c-30 182 -43 336 -48 537
-6 244 7 357 52 444 28 56 49 76 100 94 59 21 70 20 104 -13z m1315 9 c106
-84 135 -380 94 -961 l-12 -168 -162 0 -161 0 -16 123 c-47 353 -56 670 -23
812 29 129 72 185 140 185 14 0 31 7 38 15 19 21 71 18 102 -6z m1210 -41 c71
-72 105 -147 126 -280 20 -123 8 -430 -24 -612 -14 -82 -26 -160 -26 -173 l0
-23 -145 0 c-170 0 -148 -24 -170 190 -22 205 -30 534 -16 647 14 116 44 213
78 253 24 30 72 57 101 59 8 1 42 -27 76 -61z m-3796 -2 c65 -34 110 -119 139
-261 14 -72 18 -136 17 -325 -1 -206 -22 -501 -37 -516 -2 -3 -88 -8 -190 -11
l-186 -6 -5 34 c-29 170 -43 535 -27 692 19 185 56 296 122 372 28 32 36 35
86 35 29 0 66 -6 81 -14z m1815 -1218 c-62 -68 -79 -182 -43 -288 12 -35 31
-77 41 -92 11 -15 17 -28 13 -28 -5 0 -50 21 -102 46 -73 35 -110 61 -162 114
-78 77 -115 140 -105 178 3 13 18 40 32 58 l25 34 161 0 160 0 -20 -22z m931
0 c30 -42 15 -132 -27 -167 -8 -6 -29 -16 -47 -21 -28 -8 -31 -7 -25 8 17 42
16 90 -3 145 l-20 57 53 0 c44 0 57 -4 69 -22z m-769 -277 c138 11 453 2 540
-15 50 -10 123 -19 163 -21 45 -1 79 -8 90 -17 9 -8 51 -31 92 -52 141 -72
260 -159 365 -267 200 -207 312 -410 380 -691 51 -211 60 -313 59 -708 0 -201
-6 -426 -13 -500 -6 -74 -16 -205 -21 -290 -20 -300 -57 -607 -80 -649 -15
-28 -33 232 -34 488 -1 178 -4 247 -9 215 -5 -27 -9 -152 -10 -279 -1 -191 3
-253 21 -370 23 -145 75 -334 137 -496 20 -52 37 -103 37 -114 1 -11 16 -72
34 -135 51 -177 75 -287 81 -379 5 -63 3 -82 -5 -77 -7 4 -12 15 -12 26 0 57
-136 380 -160 380 -6 0 -10 -31 -10 -72 0 -78 -18 -175 -45 -248 -9 -25 -25
-76 -36 -114 -11 -37 -30 -87 -42 -110 l-22 -41 -3 30 c-8 77 -35 201 -45 207
-21 14 -24 9 -52 -79 -32 -102 -55 -150 -84 -177 -16 -14 -21 -16 -21 -5 0 12
-26 245 -46 410 -5 42 -2 63 10 88 15 29 15 37 2 84 -8 29 -22 102 -31 162
-22 155 -63 320 -87 350 -11 14 -59 51 -108 84 l-89 58 35 34 c19 18 48 61 64
94 l29 60 0 -82 c1 -47 6 -85 12 -88 37 -24 151 192 174 330 4 22 15 66 26 97
10 32 27 101 36 153 15 86 19 95 38 95 33 0 73 36 102 93 21 41 27 70 31 141
7 128 -9 188 -63 240 -32 31 -45 53 -51 86 l-8 45 -7 -55 c-4 -30 -7 -96 -8
-146 -1 -96 -46 -415 -81 -579 -29 -133 -80 -285 -127 -380 -36 -73 -38 -76
-44 -49 -4 16 -7 54 -8 85 0 31 -4 58 -7 62 -4 3 -29 -28 -56 -70 -63 -97
-154 -188 -214 -214 l-46 -21 -21 21 -21 21 26 27 c32 35 59 89 86 173 19 60
92 449 112 600 5 36 27 117 49 180 22 63 43 135 46 160 5 33 -3 19 -28 -55
-81 -237 -180 -380 -287 -410 l-25 -7 26 28 c72 79 137 254 190 510 11 55 23
111 26 126 4 23 12 28 49 34 24 3 53 4 64 1 44 -11 14 10 -72 52 -81 40 -88
46 -72 58 24 18 29 17 42 -9 9 -18 10 -6 6 57 -4 44 -8 81 -9 83 -2 2 -6 -15
-10 -37 -4 -23 -10 -41 -14 -41 -18 0 -184 184 -227 250 -60 93 -124 231 -163
350 -46 139 -114 315 -118 303 -2 -6 12 -55 32 -109 45 -125 205 -630 206
-652 0 -10 3 -12 5 -5 3 7 -2 40 -10 73 -21 79 -20 82 5 40 27 -45 104 -136
147 -174 37 -33 33 -43 -22 -56 -31 -7 -38 -5 -47 11 -5 11 -7 28 -4 39 6 18
4 19 -28 5 l-34 -14 -85 122 c-47 67 -103 154 -126 192 -63 110 -178 380 -207
487 -25 93 -79 242 -103 283 -22 38 -12 -3 22 -91 53 -138 60 -189 53 -407 -8
-254 -41 -457 -89 -550 -21 -41 -37 -134 -21 -124 4 3 17 23 28 44 22 42 33
53 55 52 9 0 5 -6 -10 -14 -23 -13 -23 -14 -5 -15 12 0 46 9 77 20 31 11 98
24 150 29 89 9 87 10 -52 6 -80 -3 -157 -7 -172 -11 -26 -6 -27 -5 -18 22 4
16 13 45 19 64 15 51 48 215 56 283 l7 58 57 -7 c31 -3 57 -7 57 -8 1 0 18
-33 38 -73 40 -81 124 -207 197 -297 l49 -61 -37 -3 c-21 -2 -67 -12 -102 -23
-35 -10 -79 -19 -98 -19 -19 0 -87 -13 -151 -29 -64 -16 -128 -31 -142 -34
-20 -3 -19 -5 9 -6 l33 -1 -31 -29 c-39 -37 -40 -55 -3 -47 15 4 60 13 100 20
74 14 74 14 67 -7 -12 -38 -18 -164 -9 -179 7 -11 15 -13 32 -7 19 7 22 15 21
56 0 44 -17 108 -18 74 -1 -8 -3 -12 -6 -10 -2 3 0 21 5 40 13 48 53 68 83 42
11 -10 17 -12 13 -5 -4 6 -2 12 4 12 6 0 8 -10 4 -26 -5 -19 -4 -25 5 -20 6 4
11 1 11 -8 0 -8 6 -16 13 -19 8 -3 3 -13 -14 -30 -15 -14 -30 -23 -33 -20 -3
4 -6 4 -6 1 0 -3 7 -11 16 -18 8 -8 14 -9 13 -4 -5 27 4 25 16 -3 19 -44 37
-44 24 -1 -13 47 -12 56 12 68 19 10 20 10 10 -9 -24 -44 -8 -78 39 -83 17 -2
28 4 36 22 11 21 10 29 -6 58 -41 69 -19 106 61 104 76 -1 87 -15 44 -57 -26
-27 -18 -33 15 -13 17 11 24 8 52 -22 27 -29 33 -32 36 -17 2 10 -1 32 -7 49
-6 17 -9 33 -7 35 6 6 74 -24 107 -47 25 -19 29 -27 29 -72 0 -41 3 -49 16
-44 11 4 14 1 10 -12 -2 -9 -19 -71 -36 -137 -56 -214 -101 -325 -166 -411
-28 -36 -33 -49 -22 -55 33 -21 96 1 157 56 l41 37 0 -43 c0 -24 -3 -73 -6
-110 -7 -65 -7 -65 -39 -66 -17 -1 -54 -12 -81 -26 -54 -27 -333 -101 -426
-112 -75 -9 -84 -21 -71 -93 7 -38 7 -61 1 -69 -19 -24 -117 -63 -156 -63 -24
0 -49 -8 -65 -20 -31 -25 -91 -149 -113 -233 -9 -34 -18 -68 -20 -76 -7 -23
-106 269 -109 320 -2 25 -8 63 -14 84 -6 22 -8 56 -5 77 7 43 12 41 -101 58
-44 6 -132 27 -195 46 -63 19 -139 42 -169 50 -79 23 -284 117 -367 169 -97
61 -168 139 -184 204 -10 43 -9 57 9 116 12 37 21 80 21 96 l0 29 42 -30 c37
-27 68 -38 68 -25 0 3 -11 33 -25 67 -20 52 -95 306 -95 323 0 19 24 -4 61
-60 24 -36 50 -65 58 -65 8 0 11 6 6 18 -14 36 -17 80 -6 100 18 33 90 69 154
76 l58 6 -21 -39 c-23 -45 -26 -109 -9 -177 10 -39 15 -45 32 -40 12 3 28 0
36 -7 14 -10 14 -10 3 5 -7 9 -12 29 -10 44 3 23 10 29 53 40 61 16 95 17 95
4 0 -14 46 -31 65 -24 9 4 15 19 15 38 0 31 2 33 38 35 33 2 50 4 101 9 10 2
12 11 7 33 -5 27 -4 30 16 23 18 -5 20 -3 13 12 -4 11 -9 26 -12 35 -5 19
-121 67 -261 109 -69 21 -103 37 -132 64 -48 43 -63 46 -50 10 19 -49 17 -50
-90 -50 -97 1 -128 -7 -72 -20 15 -3 32 -7 37 -8 6 -2 -3 -10 -20 -18 -28 -15
-32 -14 -65 8 -48 33 -62 29 -22 -5 l33 -29 -53 -29 c-29 -17 -69 -36 -88 -43
-51 -19 -57 -28 -24 -36 35 -9 44 -20 44 -60 0 -51 47 -222 74 -270 14 -24 21
-44 17 -44 -4 0 -35 25 -70 56 -50 46 -71 74 -111 158 -48 96 -50 105 -50 183
0 69 5 95 32 160 17 43 44 121 59 173 l28 95 2 -170 c2 -272 15 -253 21 35 7
273 15 344 63 554 14 60 23 111 21 113 -7 7 -47 -153 -67 -272 -12 -66 -32
-142 -45 -170 -13 -27 -37 -97 -53 -155 -29 -100 -75 -227 -86 -238 -3 -3 -3
26 1 65 12 124 -8 173 -71 173 -56 0 -75 -35 -75 -138 0 -46 5 -102 12 -124 8
-28 8 -42 0 -50 -8 -8 -9 -5 -6 9 4 15 -4 28 -30 48 l-36 27 0 89 c0 48 4 90
9 94 13 7 53 115 48 129 -2 6 -14 -8 -25 -31 -27 -53 -79 -112 -106 -123 -71
-26 -73 -25 -25 26 63 68 89 117 149 279 104 285 220 528 324 680 138 202 365
405 593 528 57 30 89 41 138 45 61 4 67 3 165 -47 73 -38 117 -54 158 -58 l57
-6 -27 32 c-25 28 -48 86 -48 118 0 9 17 11 63 6 34 -3 85 -4 112 -2z m-3312
-617 l37 -6 0 -195 0 -195 -362 5 c-367 5 -514 17 -652 53 -65 17 -126 45
-143 66 -16 19 1 122 26 157 37 51 162 99 317 120 71 10 710 6 777 -5z m7192
-40 c60 -9 135 -25 165 -37 47 -19 58 -29 77 -67 38 -77 14 -124 -91 -175
-127 -61 -306 -85 -648 -85 -128 0 -263 3 -300 7 l-68 6 0 178 0 179 63 1 c34
1 143 4 242 8 240 8 426 3 560 -15z m-3595 -457 c0 -7 16 -50 35 -97 19 -46
35 -87 35 -91 0 -3 -23 -2 -51 4 l-50 10 7 56 c4 31 7 75 7 98 0 23 4 40 9 37
4 -3 8 -11 8 -17z m-1703 -519 c-3 -8 -6 -5 -6 6 -1 11 2 17 5 13 3 -3 4 -12
1 -19z m-70 -50 c-2 -13 -4 -3 -4 22 0 25 2 35 4 23 2 -13 2 -33 0 -45z m-981
-83 c-11 -8 -27 -15 -35 -15 -10 1 -7 6 9 15 33 19 50 18 26 0z m93 -119 c24
-63 42 -119 40 -125 -2 -5 -66 -51 -141 -100 -126 -84 -169 -107 -153 -81 3 6
1 10 -4 10 -6 0 -10 3 -9 8 3 9 -50 172 -61 191 -5 7 -15 11 -24 9 -13 -2 -10
-20 22 -115 21 -62 35 -115 33 -118 -20 -19 -38 16 -79 150 -13 44 -27 87 -29
96 -4 12 20 32 88 76 134 86 172 108 165 96 -3 -5 -56 -41 -117 -79 -62 -37
-114 -73 -117 -78 -4 -5 10 -7 33 -4 36 5 77 29 274 160 14 9 27 17 30 17 3 0
25 -51 49 -113z m768 97 c15 -6 13 -8 -11 -13 -24 -4 -32 -12 -39 -40 -13 -50
-4 -214 12 -234 8 -9 11 -19 8 -22 -3 -3 -11 5 -19 18 -9 15 -13 60 -13 133 0
156 9 179 62 158z m2515 -39 l26 -21 -22 -13 c-20 -10 -29 -8 -64 15 l-41 27
22 18 c23 19 21 20 79 -26z m-2342 -5 c0 -6 -4 -7 -10 -4 -5 3 -10 11 -10 16
0 6 5 7 10 4 6 -3 10 -11 10 -16z m50 -51 c-1 -49 -2 -51 -15 -34 -16 21 -19
44 -9 70 12 32 24 14 24 -36z m-2095 7 c83 -8 162 -18 178 -21 l27 -6 0 -148
0 -148 -27 -6 c-98 -19 -303 -31 -533 -31 -223 0 -278 3 -345 19 -104 24 -176
58 -214 102 -34 38 -38 59 -16 88 8 11 15 33 15 48 0 56 78 98 221 118 91 13
516 4 694 -15z m2024 -30 c16 -20 16 -20 -6 -1 -13 11 -23 26 -22 35 0 14 1
14 6 1 3 -8 13 -24 22 -35z m5316 35 c161 -23 237 -65 248 -137 3 -21 8 -45
11 -54 9 -21 -28 -65 -74 -89 -127 -65 -492 -110 -886 -110 l-121 0 -6 98 c-4
53 -7 134 -7 178 l0 81 113 13 c270 30 589 39 722 20z m-4690 -17 c-4 -10 -7
-28 -7 -40 1 -12 -3 -25 -8 -28 -6 -3 -10 3 -10 14 0 24 17 71 26 71 3 0 3 -8
-1 -17z m103 -15 c-6 -18 -12 -34 -13 -36 -4 -5 -85 18 -85 24 0 3 5 14 10 25
8 14 21 19 55 19 l44 0 -11 -32z m158 11 c25 -13 45 -51 35 -67 -4 -6 -34 -9
-79 -7 -57 3 -74 0 -79 -11 -9 -23 -23 -16 -23 12 0 23 3 26 29 22 27 -4 30
-1 33 30 3 28 2 31 -7 18 -7 -9 -15 -13 -18 -9 -4 3 -2 12 4 19 12 15 71 11
105 -7z m-943 -66 l-18 -27 -3 38 c-2 21 0 46 3 55 5 13 9 11 21 -11 13 -25
13 -31 -3 -55z m-46 50 c-3 -10 -8 -35 -12 -55 -10 -62 -25 -55 -25 11 0 55 2
61 21 61 15 0 19 -5 16 -17z m2090 -25 c-18 -44 -52 -50 -60 -11 -7 37 -2 43
39 43 l34 0 -13 -32z m453 -13 c0 -10 -16 -4 -40 16 l-25 20 33 -16 c17 -8 32
-18 32 -20z m35 -23 c-3 -3 -11 0 -18 7 -9 10 -8 11 6 5 10 -3 15 -9 12 -12z
m-3290 -2 c3 -5 15 -10 25 -10 22 0 26 -9 138 -345 44 -132 97 -285 116 -340
22 -60 36 -118 36 -145 l-1 -45 -102 -78 c-56 -42 -124 -96 -150 -119 -39 -34
-56 -43 -90 -44 -23 -1 -50 -5 -60 -9 -28 -12 -137 0 -148 16 -11 18 -68 191
-109 334 -33 113 -64 220 -120 407 -25 85 -29 111 -20 127 11 21 40 29 40 11
0 -5 21 -10 47 -10 38 0 59 7 98 34 27 18 97 64 153 101 97 63 104 69 100 96
-4 25 -1 29 18 29 13 0 26 -4 29 -10z m797 -155 c3 -44 2 -69 -2 -55 -8 25
-13 147 -6 139 2 -2 6 -40 8 -84z m88 28 c0 -32 -5 -28 -14 10 -4 19 -3 26 4
22 5 -3 10 -18 10 -32z m-141 -52 c-8 -67 -33 -131 -45 -118 -3 3 2 29 10 58
8 30 20 74 26 98 16 62 20 47 9 -38z m176 33 c9 -15 12 -23 6 -20 -11 7 -35
46 -28 46 3 0 12 -12 22 -26z m-230 -54 c-8 -23 -15 -51 -15 -61 0 -26 -19
-24 -29 4 -5 13 -5 27 2 35 7 9 7 16 -2 25 -9 9 -4 15 21 28 18 10 34 16 36
15 1 -2 -5 -22 -13 -46z m3045 -116 c26 -91 -11 -238 -72 -289 -53 -45 -56
-38 -37 103 10 70 18 159 19 199 0 105 6 115 46 70 17 -21 37 -58 44 -83z
m-2710 16 c13 -48 12 -87 -5 -135 -21 -57 -18 -103 9 -160 24 -51 115 -146
174 -180 l32 -19 0 -102 c0 -271 39 -480 109 -585 28 -41 31 -59 11 -59 -27 0
-186 180 -252 285 -40 64 -85 187 -117 318 -38 154 -41 178 -50 422 l-7 200
23 25 c13 14 26 34 29 44 6 19 7 19 20 1 8 -11 19 -35 24 -55z m-236 -109 c-8
-58 -17 -107 -21 -110 -3 -3 -3 9 1 28 3 19 9 72 13 118 3 46 10 80 14 76 4
-4 1 -55 -7 -112z m3 -303 c-3 -7 -5 -2 -5 12 0 14 2 19 5 13 2 -7 2 -19 0
-25z m-170 -35 c-3 -10 -5 -4 -5 12 0 17 2 24 5 18 2 -7 2 -21 0 -30z m-10
-75 c-2 -13 -4 -5 -4 17 -1 22 1 32 4 23 2 -10 2 -28 0 -40z m695 -160 c11
-42 26 -85 33 -94 7 -10 0 32 -16 96 -16 63 -29 124 -29 134 0 18 1 18 18 3
58 -53 351 -159 582 -211 l100 -22 -97 -24 c-107 -26 -271 -32 -415 -16 -62 7
-84 6 -117 -8 -23 -9 -55 -16 -71 -16 l-30 0 1 163 c1 132 3 154 11 117 6 -25
19 -80 30 -122z m-687 70 c3 -7 -1 -4 -9 6 -9 11 -16 29 -15 40 1 17 2 16 9
-6 4 -14 11 -32 15 -40z m65 2 c-6 -11 -13 -20 -16 -20 -2 0 0 9 6 20 6 11 13
20 16 20 2 0 0 -9 -6 -20z m2440 -100 c-22 -112 -67 -260 -80 -260 -4 0 -21 7
-37 15 -98 50 -207 96 -254 106 -32 8 -66 23 -84 39 -16 15 -41 33 -54 40 -33
17 -17 25 74 38 107 14 371 79 415 101 19 9 36 17 37 16 1 0 -7 -43 -17 -95z
m-2137 -49 c-7 -9 -11 6 -17 54 l-6 50 13 -50 c7 -27 12 -52 10 -54z m-778 9
c21 -41 20 -43 -28 -62 -52 -22 -63 -22 -71 -2 -10 25 -8 28 29 48 19 10 32
22 30 27 -4 6 2 11 22 18 1 1 9 -12 18 -29z m179 -10 c25 -12 50 -29 54 -38
17 -33 44 -187 40 -232 -3 -44 -4 -42 -33 58 l-30 102 -72 0 c-61 0 -77 4 -94
21 -14 14 -19 28 -15 42 3 12 6 27 6 34 0 13 43 31 76 32 12 1 42 -8 68 -19z
m249 -50 l106 -51 15 -67 c21 -96 36 -190 37 -242 0 -41 1 -43 11 -20 20 49
-18 294 -52 335 -16 19 -7 19 31 -1 53 -27 72 -87 77 -247 3 -99 8 -135 15
-128 13 13 16 169 4 254 l-7 59 85 -4 c47 -2 85 -5 85 -9 0 -3 25 -47 55 -98
38 -64 62 -119 76 -175 25 -102 88 -305 101 -330 11 -19 11 -19 26 0 9 11 13
13 10 4 -3 -8 -15 -45 -27 -83 l-23 -67 -60 32 c-37 19 -72 31 -89 30 -15 -2
-47 2 -71 9 -23 6 -95 12 -159 13 -150 1 -161 9 -115 74 48 68 95 188 96 250
0 21 -18 13 -25 -10 -15 -48 -97 -212 -127 -254 -44 -61 -72 -78 -101 -62 -18
10 -86 37 -94 38 -10 0 0 -25 15 -36 15 -12 15 -13 0 -14 -16 0 -38 46 -38 81
0 17 4 16 36 -6 34 -23 64 -32 64 -19 0 3 -14 17 -30 31 -40 33 -120 137 -120
155 0 8 11 25 24 37 13 13 27 39 30 59 4 21 14 66 23 102 15 60 15 74 0 178
-9 61 -27 139 -40 172 l-25 60 38 0 c24 0 74 -18 143 -50z m2011 -29 l59 -60
-5 -221 c-3 -121 -7 -223 -10 -225 -2 -2 -24 3 -48 11 -35 12 -59 13 -127 5
-45 -6 -92 -15 -103 -21 -28 -15 -25 2 6 31 14 13 40 48 56 77 l30 53 35 -41
c35 -40 113 -89 113 -71 0 5 -61 73 -137 151 -94 97 -139 138 -146 131 -8 -8
-3 -20 16 -39 15 -15 27 -32 27 -36 0 -4 -21 -40 -46 -79 -115 -177 -154 -251
-124 -232 6 3 7 -1 4 -10 -6 -14 -9 -14 -28 3 -11 11 -31 23 -43 26 -12 4 -42
40 -70 82 -26 41 -74 109 -105 151 -32 42 -56 79 -53 82 2 4 24 17 49 30 48
23 53 30 35 48 -23 23 -110 -42 -214 -159 -72 -82 -101 -108 -103 -95 -9 44
97 318 140 364 24 27 91 60 147 73 25 6 31 6 22 -3 -6 -6 -11 -27 -11 -47 0
-32 5 -46 37 -105 7 -11 21 -54 33 -95 33 -115 74 -222 86 -227 6 -2 9 -16 6
-30 -4 -19 -1 -24 9 -21 8 2 24 42 37 89 49 177 62 216 85 250 21 32 27 34 92
40 76 6 115 22 159 65 25 25 27 34 22 71 -3 24 -2 43 2 43 4 0 34 -27 66 -59z
m-4014 -12 c47 -5 147 -19 223 -30 l137 -21 0 -144 c0 -78 -3 -145 -7 -147 -5
-3 -80 -13 -168 -23 -218 -24 -527 -25 -650 0 -174 34 -305 119 -291 189 32
160 314 226 756 176z m1600 -4 c12 -32 54 -48 107 -41 51 7 61 -6 93 -114 32
-111 44 -205 30 -239 -15 -38 -70 -62 -158 -68 -67 -5 -75 -4 -98 18 -36 34
-59 91 -83 216 -24 120 -25 220 -2 215 7 -2 21 4 30 11 38 33 69 34 81 2z
m1305 -11 c39 -8 74 -14 79 -14 5 0 -3 -9 -17 -21 -37 -28 -179 -200 -203
-244 l-19 -36 40 -34 c22 -18 61 -46 87 -62 26 -15 48 -30 48 -33 0 -3 -17
-16 -38 -29 -103 -66 -183 -129 -191 -151 -7 -21 -8 -19 -6 15 3 55 -15 188
-27 200 -7 7 -9 -31 -5 -120 2 -71 3 -125 1 -120 -2 6 -15 48 -28 95 -13 47
-37 129 -54 183 l-29 97 46 -43 c54 -50 101 -72 136 -63 29 7 32 26 9 61 -17
25 -67 194 -79 263 -6 35 -4 41 9 36 8 -3 34 6 57 19 45 27 52 27 184 1z
m4680 -9 c100 -21 174 -61 198 -108 26 -50 17 -81 -42 -138 -151 -145 -451
-182 -968 -118 l-93 11 0 163 0 163 33 6 c32 6 304 32 407 40 107 8 395 -4
465 -19z m-4500 -3 c-23 -16 -74 -90 -67 -96 10 -11 75 -39 84 -38 4 1 -2 -22
-13 -51 -12 -28 -29 -85 -40 -126 -10 -41 -20 -76 -22 -77 -9 -9 -87 -30 -87
-23 0 5 -23 27 -52 50 -29 22 -53 50 -55 62 -2 11 -6 23 -10 26 -3 3 -3 -4 0
-16 6 -27 0 -28 -28 -7 -19 15 -14 21 129 160 81 79 153 144 160 144 7 0 7 -3
1 -8z m1197 -126 c21 -33 37 -64 35 -70 -2 -6 -14 -13 -28 -17 -23 -7 -23 -7
-2 -8 12 -1 25 4 28 9 8 13 26 3 24 -13 -1 -7 9 -37 23 -67 14 -30 28 -66 32
-80 3 -14 3 -20 0 -13 -7 14 -34 1 -88 -43 -23 -19 -33 -34 -27 -38 6 -4 11
-3 11 3 0 6 8 15 18 20 14 7 19 6 19 -4 0 -7 -7 -11 -15 -7 -10 3 -13 1 -8 -6
4 -7 -16 -23 -56 -43 l-63 -32 -38 22 c-41 24 -66 19 -32 -5 48 -35 59 -44 46
-38 -9 5 -12 3 -7 -5 4 -6 11 -9 14 -7 4 2 19 -5 32 -16 14 -11 18 -17 10 -13
-8 4 -6 0 4 -9 10 -8 22 -13 27 -11 4 3 11 0 15 -6 5 -8 2 -10 -7 -5 -8 4 -1
-3 16 -16 16 -13 34 -23 40 -23 27 -2 115 -68 115 -87 0 -4 -7 -8 -16 -8 -8 0
-13 -4 -9 -9 3 -5 1 -12 -3 -15 -5 -3 -15 -26 -22 -51 -7 -26 -17 -42 -23 -38
-6 3 -7 1 -3 -6 13 -20 -70 -212 -103 -239 -9 -7 -10 -11 -4 -7 9 4 11 1 7 -9
-3 -9 -11 -13 -17 -9 -6 3 -7 1 -3 -5 11 -19 -82 -188 -131 -237 -25 -26 -42
-49 -39 -52 3 -4 13 2 22 13 15 18 15 18 5 -2 -6 -12 -19 -61 -29 -110 -11
-49 -23 -97 -27 -106 -12 -29 13 -21 29 10 8 15 24 61 37 102 12 41 32 89 44
105 39 52 223 426 252 512 15 46 33 82 38 80 34 -12 78 -329 73 -526 -3 -123
-6 -141 -31 -195 -31 -67 -32 -73 -13 -57 12 10 17 5 27 -28 9 -30 9 -47 1
-65 -11 -24 9 -168 41 -288 13 -51 9 -76 -8 -48 -3 6 -13 10 -21 10 -18 0
-173 -102 -262 -173 l-63 -50 -70 48 c-38 26 -72 51 -75 56 -7 12 -35 561 -29
567 3 3 6 -3 6 -14 3 -46 17 48 18 121 0 44 7 116 15 160 8 44 17 148 20 230
6 138 31 330 45 347 3 4 3 53 -2 110 -9 129 -9 119 2 208 5 41 10 125 10 186
l1 111 52 6 c28 4 55 10 60 15 5 5 -3 23 -19 43 l-28 33 34 -20 c19 -10 51
-46 73 -78z m81 24 c7 0 19 -4 27 -10 12 -7 12 -12 -4 -29 -26 -28 -30 -27
-50 15 -15 33 -15 36 -1 30 9 -3 22 -6 28 -6z m297 -164 c112 -73 99 -49 149
-271 25 -113 40 -189 46 -245 1 -8 5 -31 9 -51 5 -25 3 -45 -7 -65 -16 -33
-16 -23 24 -385 16 -147 29 -287 29 -312 0 -49 11 -82 47 -135 18 -28 22 -46
21 -115 -1 -60 9 -125 35 -242 20 -88 45 -214 56 -280 12 -66 23 -132 26 -147
l5 -28 -198 0 -197 0 -38 113 c-21 63 -60 168 -86 234 -43 107 -46 122 -34
140 12 18 12 34 -1 111 -9 49 -19 98 -22 108 -10 27 54 -34 133 -128 36 -43
69 -78 74 -78 46 0 -114 193 -195 235 -26 14 -38 62 -24 100 9 26 7 39 -10 79
-20 44 -21 50 -6 78 46 90 62 224 45 378 -13 105 -49 248 -77 303 -9 17 -20
60 -25 96 -8 72 -7 70 -138 175 l-61 50 34 11 c18 7 66 33 105 59 81 54 88 74
51 146 -27 52 -26 57 13 64 17 4 48 20 67 36 19 16 39 30 43 30 4 0 52 -29
107 -64z m-1420 -46 c0 -8 18 -46 40 -83 21 -37 34 -65 28 -61 -25 15 -157 44
-205 44 -29 0 -53 2 -53 4 0 2 3 12 6 21 5 13 8 14 15 3 12 -19 70 15 117 68
36 40 51 41 52 4z m175 -90 c7 -14 22 -42 34 -62 18 -30 20 -38 8 -38 -21 0
-31 17 -56 89 -22 68 -27 104 -9 61 6 -14 17 -36 23 -50z m-398 -27 c-26 -29
-45 -130 -51 -273 -4 -74 -13 -196 -21 -270 -11 -100 -12 -165 -5 -250 28
-359 32 -473 28 -675 -5 -225 -14 -282 -43 -271 -9 3 -21 -4 -31 -19 -9 -14
-21 -25 -26 -25 -17 0 -142 93 -194 145 l-52 51 4 140 c8 246 14 307 30 293
29 -24 24 0 -16 77 -55 107 -73 199 -67 339 4 98 10 126 55 260 27 83 52 159
54 170 2 11 8 -14 12 -55 5 -41 24 -131 43 -200 20 -69 48 -171 64 -227 38
-136 117 -349 135 -364 18 -14 17 -11 -1 41 -8 23 -17 61 -19 84 -6 49 -28
131 -57 206 -11 30 -22 66 -24 80 -1 14 -10 39 -18 55 -17 32 -65 225 -93 368
-13 69 -14 94 -5 114 8 18 16 23 28 18 10 -3 14 -3 10 1 -4 4 -2 13 4 21 14
16 43 18 33 1 -4 -7 -3 -8 5 -4 6 4 9 11 7 15 -8 12 51 64 63 57 5 -4 8 -16 6
-27 -4 -17 -2 -19 11 -8 13 10 13 14 -1 29 -13 15 -11 19 28 48 35 27 99 66
116 71 2 0 -3 -7 -12 -16z m-1208 -161 c45 -161 85 -372 120 -632 17 -124 33
-238 36 -255 29 -182 65 -690 65 -912 l0 -148 -100 -1 -100 -2 0 207 c0 293
-30 748 -70 1073 -33 268 -98 670 -119 746 l-10 32 42 0 c23 0 53 6 67 13 32
17 31 18 69 -121z m1701 -109 c52 -6 89 -30 89 -58 0 -5 -11 3 -24 20 -13 16
-27 26 -31 22 -4 -3 9 -69 29 -144 42 -158 89 -355 85 -358 -43 -26 -157 -113
-170 -128 -16 -21 -17 -20 -103 63 -73 73 -85 89 -80 110 7 30 66 233 102 347
14 46 23 96 21 113 -4 25 -2 30 11 25 9 -4 41 -9 71 -12z m-370 -188 c-18 -19
-26 -22 -37 -13 -17 13 -7 25 27 31 14 2 27 5 29 6 3 0 -6 -10 -19 -24z m808
-51 c17 -3 32 -8 32 -10 0 -9 -45 -74 -51 -74 -7 0 -129 134 -129 142 0 3 26
-8 58 -23 31 -16 72 -31 90 -35z m-878 -221 c34 -86 37 -88 77 -53 34 31 76
39 89 19 8 -14 -24 -41 -90 -76 l-50 -25 -27 30 c-38 42 -56 104 -41 137 6 14
13 25 16 25 2 0 14 -26 26 -57z m856 30 c7 -10 14 -26 14 -35 0 -20 -64 -163
-77 -171 -17 -11 -147 68 -161 97 -8 15 -12 30 -9 33 7 6 97 -34 119 -53 22
-20 35 -12 43 28 10 42 42 118 51 118 4 0 13 -8 20 -17z m-3866 -78 c186 -19
292 -33 299 -41 3 -3 7 -81 9 -174 l3 -168 -33 -5 c-175 -31 -710 -33 -839 -3
-180 42 -272 111 -271 205 1 86 9 114 36 137 31 28 110 52 204 64 92 12 405 4
592 -15z m7335 -16 c162 -12 272 -32 332 -60 49 -24 59 -43 38 -75 -17 -26
-20 -70 -5 -79 16 -10 12 -22 -20 -58 -70 -80 -214 -116 -497 -124 -179 -5
-493 8 -545 23 -16 5 -18 23 -18 189 l0 184 63 4 c146 8 523 6 652 -4z m-4305
-181 c32 -23 47 -68 32 -94 -8 -14 -17 -8 -65 39 -42 40 -53 57 -44 66 17 17
45 13 77 -11z m863 -246 c37 -32 10 -112 -37 -112 -30 0 -85 36 -98 65 -9 19
-8 29 5 49 26 39 83 39 130 -2z m-856 -151 c39 -24 49 -64 29 -113 -18 -43
-46 -55 -87 -38 -32 13 -32 17 -23 109 6 53 9 61 28 61 12 0 35 -9 53 -19z
m850 -73 c12 -13 24 -43 28 -68 5 -37 3 -49 -13 -68 -18 -21 -21 -21 -51 -6
-45 23 -65 57 -58 100 10 61 57 82 94 42z m-2156 -910 c20 -231 18 -588 -4
-705 -24 -130 -50 -195 -97 -237 -34 -31 -47 -36 -89 -36 -45 0 -52 3 -91 46
-152 165 -199 506 -139 998 l12 96 197 0 197 0 14 -162z m1245 35 c16 -230 10
-675 -9 -782 -28 -150 -73 -231 -130 -231 -11 0 -39 9 -62 20 -143 69 -209
376 -185 863 6 111 13 214 16 230 l6 27 178 0 178 0 8 -127z m1309 42 c13
-147 -1 -688 -19 -795 -21 -123 -51 -211 -82 -245 -22 -24 -30 -26 -70 -20
-29 4 -50 2 -59 -5 -12 -10 -20 -6 -44 17 -37 37 -67 134 -82 262 -18 152 -4
602 27 829 l5 42 159 0 158 0 7 -85z m1219 38 c17 -134 37 -400 42 -573 10
-285 -16 -481 -70 -534 -23 -24 -40 -25 -131 -6 -127 25 -175 177 -175 550 0
153 17 419 36 563 l6 47 143 0 142 0 7 -47z"/>
<path d="M4730 7061 c-40 -13 -92 -42 -86 -48 2 -3 38 2 78 11 101 22 174 8
386 -75 249 -97 378 -213 496 -443 190 -371 280 -748 293 -1214 3 -133 10
-219 15 -214 5 5 12 72 15 148 6 146 -7 344 -33 499 -20 123 -95 401 -139 516
-46 118 -150 337 -197 409 -49 77 -140 173 -213 226 -72 50 -246 134 -343 164
-72 23 -231 35 -272 21z"/>
<path d="M4005 6781 c-56 -26 -253 -234 -259 -274 -1 -6 -5 -18 -10 -25 -18
-30 4 -21 24 10 35 50 91 108 130 133 47 30 195 74 265 79 31 2 59 7 62 10 10
10 -21 39 -62 56 -66 29 -106 32 -150 11z"/>
<path d="M4689 6787 c-35 -13 -99 -54 -99 -63 0 -2 13 2 30 11 36 19 41 19 34
0 -7 -17 2 -21 131 -60 50 -14 141 -52 203 -82 137 -68 188 -119 284 -282 93
-157 144 -319 203 -636 14 -71 23 -107 20 -80 -21 218 -30 275 -60 385 -74
271 -167 433 -346 605 -171 165 -310 235 -400 202z"/>
<path d="M4238 6664 c-68 -81 -148 -228 -182 -334 -18 -55 -36 -103 -40 -107
-3 -3 -6 13 -6 36 0 45 -25 105 -40 96 -17 -11 -137 -198 -204 -320 -105 -190
-170 -379 -182 -528 -4 -45 -11 -89 -15 -99 -6 -11 -4 -18 5 -21 10 -4 16 7
21 41 13 95 55 285 71 320 77 181 244 482 267 482 7 0 22 -7 34 -15 12 -8 23
-12 26 -7 2 4 2 2 1 -5 -2 -7 1 -15 7 -19 6 -4 8 -22 3 -48 -3 -22 -12 -115
-18 -206 -11 -156 -12 -165 -31 -162 -11 2 -58 5 -105 7 -47 2 -74 2 -60 -1
14 -2 57 -9 95 -15 39 -7 74 -15 79 -20 4 -4 16 -63 26 -131 12 -80 33 -166
60 -245 42 -123 71 -170 43 -70 -8 28 -21 75 -29 104 -30 108 -54 307 -54 453
0 163 17 293 55 423 24 84 79 217 88 217 3 0 -1 -21 -9 -47 -29 -98 -36 -178
-42 -503 -9 -531 -6 -617 21 -654 9 -13 12 14 10 126 -1 79 1 134 3 123 15
-63 54 -139 106 -208 62 -83 63 -91 19 -131 -23 -21 -28 -46 -8 -46 20 1 91
36 105 53 12 14 18 13 60 -17 89 -62 101 -55 53 29 l-30 52 40 39 c35 34 59
76 128 224 11 25 11 25 6 -5 -4 -32 -9 -260 -5 -285 5 -34 18 40 19 110 1 41
8 140 16 220 27 250 20 534 -17 723 -19 99 -21 54 -3 -73 14 -96 17 -164 12
-328 -5 -205 -5 -208 -40 -303 -50 -139 -94 -215 -167 -289 -71 -72 -137 -126
-146 -118 -3 3 9 27 25 54 17 26 31 53 31 58 0 6 -4 5 -9 -2 -18 -29 -136 150
-170 258 -24 79 -24 72 -21 250 1 149 2 150 36 56 27 -74 103 -184 175 -254
35 -33 66 -58 69 -55 3 3 -1 8 -8 10 -31 11 -133 159 -190 274 -78 157 -98
245 -88 399 7 124 44 279 87 368 17 35 32 62 34 60 1 -2 -3 -37 -11 -78 -35
-197 -1 -520 81 -760 29 -85 90 -207 122 -245 l26 -30 -18 29 c-14 23 -15 33
-5 54 17 38 50 183 49 217 0 23 -56 -166 -59 -197 0 -5 -4 -8 -9 -8 -24 0
-114 265 -131 385 -5 39 -16 115 -25 170 -23 155 -19 340 11 488 8 38 -5 33
-48 -19z m-258 -361 c-1 -35 -2 -36 -15 -19 -11 14 -11 22 -2 37 16 26 17 25
17 -18z m454 -1112 c-3 -3 -14 4 -25 15 -13 13 -17 27 -13 38 6 16 10 14 25
-15 9 -19 15 -36 13 -38z"/>
<path d="M3680 6373 c-45 -94 -122 -291 -155 -396 -15 -49 -29 -86 -32 -84
-11 11 92 329 132 408 10 19 12 29 5 22 -7 -6 -26 -42 -42 -80 -96 -222 -187
-593 -202 -828 -7 -106 6 -95 24 20 11 75 66 328 75 350 2 6 2 -30 -1 -80 -5
-92 13 -235 35 -272 9 -14 10 -9 4 22 -5 22 -8 117 -7 210 0 141 5 186 24 265
30 125 92 303 142 413 23 48 39 90 36 92 -3 3 -20 -25 -38 -62z"/>
<path d="M6031 5928 c-1 -9 6 -52 14 -95 25 -130 44 -300 55 -509 6 -110 13
-201 16 -203 13 -14 -14 429 -36 579 -20 135 -47 260 -49 228z"/>
<path d="M5281 5865 c0 -5 8 -26 19 -45 11 -19 19 -30 19 -25 0 6 -8 26 -19
45 -11 19 -19 31 -19 25z"/>
<path d="M5321 5775 c0 -5 6 -21 14 -35 8 -14 14 -20 14 -15 0 6 -6 21 -14 35
-8 14 -14 21 -14 15z"/>
<path d="M4376 5414 c-9 -26 -14 -49 -12 -51 2 -2 11 17 20 43 9 26 14 49 12
51 -2 2 -11 -17 -20 -43z"/>
<path d="M3530 5400 c0 -5 5 -10 11 -10 5 0 7 5 4 10 -3 6 -8 10 -11 10 -2 0
-4 -4 -4 -10z"/>
<path d="M3760 5370 c70 -11 163 -36 219 -61 24 -11 45 -18 48 -16 2 3 -6 17
-19 31 -19 21 -39 29 -108 41 -47 8 -110 14 -140 14 l-55 -1 55 -8z"/>
<path d="M5103 5333 c9 -2 25 -2 35 0 9 3 1 5 -18 5 -19 0 -27 -2 -17 -5z"/>
<path d="M6102 5020 c0 -19 2 -27 5 -17 2 9 2 25 0 35 -3 9 -5 1 -5 -18z"/>
<path d="M3800 5031 c0 -6 4 -13 10 -16 6 -3 7 1 4 9 -7 18 -14 21 -14 7z"/>
<path d="M4011 5021 c7 -11 5 -34 -8 -76 -17 -55 -21 -60 -58 -72 -53 -16
-188 -16 -203 -1 -7 7 -12 8 -12 3 0 -4 -9 0 -19 9 -27 24 -36 3 -15 -33 15
-25 22 -29 46 -24 22 4 28 2 28 -11 0 -16 1 -16 16 -2 20 21 34 20 34 -1 1
-17 1 -17 11 0 8 13 18 17 34 13 13 -3 27 -1 30 4 5 8 11 7 21 -1 11 -9 14 -8
14 5 0 11 9 16 28 16 15 0 37 3 49 6 27 7 41 43 22 55 -13 9 -6 19 22 31 3 2
8 19 12 39 5 34 3 37 -28 46 -30 10 -33 9 -24 -6z"/>
<path d="M5187 5000 c-3 -11 -11 -20 -17 -20 -10 0 -10 3 0 15 8 9 8 15 2 15
-6 0 -13 -6 -15 -12 -4 -10 -6 -10 -6 0 -1 6 -11 12 -23 12 -20 0 -19 -2 10
-20 18 -11 37 -20 42 -20 10 0 24 39 17 46 -2 3 -7 -4 -10 -16z"/>
<path d="M5232 5004 c4 -3 0 -27 -7 -52 -11 -36 -12 -48 -2 -55 8 -6 6 -7 -5
-3 -10 3 -18 1 -18 -5 0 -5 -11 -21 -25 -34 -21 -22 -33 -25 -103 -25 -88 0
-158 19 -179 50 -17 24 -22 24 -47 5 -19 -14 -19 -15 -1 -35 10 -11 26 -20 36
-20 10 0 24 -6 32 -14 10 -11 17 -12 25 -4 8 8 13 7 17 -4 5 -12 18 -15 55
-12 27 2 52 -1 55 -6 4 -6 14 -5 26 3 16 10 21 9 29 -3 5 -8 10 -10 10 -4 0
11 25 18 85 28 28 4 62 58 76 122 7 30 10 56 8 58 -7 6 -73 16 -67 10z"/>
<path d="M4318 4523 c-24 -4 -28 -10 -33 -51 -13 -101 -9 -139 20 -167 41 -42
165 -30 165 14 0 66 -54 205 -76 197 -7 -3 -16 -1 -19 4 -6 10 -9 10 -57 3z
m99 -80 c11 -27 23 -65 27 -85 6 -32 3 -39 -17 -53 -31 -20 -73 -16 -103 12
-35 33 -34 110 2 147 41 41 67 35 91 -21z"/>
<path d="M4355 4450 c-3 -6 1 -7 9 -4 18 7 21 14 7 14 -6 0 -13 -4 -16 -10z"/>
<path d="M5817 3990 c2 -52 16 -173 29 -269 27 -193 27 -242 0 -74 -10 60 -24
148 -32 198 -17 100 -24 118 -24 56 0 -109 52 -435 82 -510 10 -24 11 -25 18
-6 8 18 9 17 9 -7 1 -16 17 -137 36 -270 19 -134 35 -255 35 -270 0 -16 5 -28
11 -28 13 0 11 30 -27 350 -14 118 -37 278 -50 355 -13 77 -35 219 -49 315
-35 239 -45 280 -38 160z m60 -492 c-3 -7 -5 -2 -5 12 0 14 2 19 5 13 2 -7 2
-19 0 -25z m10 -55 c-3 -10 -5 -4 -5 12 0 17 2 24 5 18 2 -7 2 -21 0 -30z"/>
<path d="M2200 5033 c-19 -13 -37 -29 -39 -35 -2 -6 14 2 35 18 22 15 41 29
43 31 2 2 2 5 0 6 -2 2 -20 -7 -39 -20z"/>
<path d="M2113 4969 c-35 -22 -46 -37 -15 -20 22 13 58 40 52 41 -3 0 -20 -10
-37 -21z"/>
<path d="M2000 4899 c-25 -17 -56 -42 -70 -56 -14 -14 8 -2 48 27 62 45 81 61
70 60 -2 0 -23 -14 -48 -31z"/>
<path d="M1818 4823 c18 -2 45 -2 60 0 15 2 0 4 -33 4 -33 0 -45 -2 -27 -4z"/>
<path d="M2340 4531 c-15 -29 -12 -39 6 -16 12 16 18 18 34 7 22 -13 27 -3 8
16 -18 18 -36 15 -48 -7z"/>
<path d="M2131 4095 c1 -19 18 -51 18 -35 0 8 -4 22 -9 30 -5 8 -9 11 -9 5z"/>
<path d="M3260 3711 c0 -17 129 -318 181 -422 21 -43 44 -76 52 -76 11 0 13 6
7 21 -87 227 -239 529 -240 477z"/>
<path d="M3017 3538 c-20 -88 -104 -254 -140 -279 -5 -4 -5 -9 1 -13 33 -20
145 166 157 262 7 52 -7 75 -18 30z"/>
<path d="M4565 3650 c-27 -27 -46 -52 -44 -55 7 -7 87 62 99 86 18 33 -4 21
-55 -31z"/>
<path d="M3593 3894 c3 -11 15 -55 27 -99 27 -100 40 -123 39 -75 0 49 -41
183 -58 188 -9 3 -11 -2 -8 -14z"/>
<path d="M3795 3758 l-40 -43 43 40 c39 36 47 45 39 45 -2 0 -21 -19 -42 -42z"/>
<path d="M3846 3662 c-3 -5 1 -15 8 -21 11 -10 14 -9 12 3 -3 21 -13 29 -20
18z"/>
<path d="M3753 3599 c14 -20 77 -67 77 -57 0 2 -21 21 -46 42 -34 29 -42 33
-31 15z"/>
<path d="M3901 3554 c0 -11 3 -14 6 -6 3 7 2 16 -1 19 -3 4 -6 -2 -5 -13z"/>
<path d="M5125 3729 c-4 -6 -5 -12 -2 -15 2 -3 7 2 10 11 7 17 1 20 -8 4z"/>
<path d="M5107 3689 c4 -13 8 -18 11 -10 2 7 -1 18 -6 23 -8 8 -9 4 -5 -13z"/>
<path d="M5133 3681 c-1 -13 4 -19 17 -18 15 1 16 5 9 19 -13 24 -24 23 -26
-1z"/>
<path d="M5105 3541 c-3 -5 -2 -12 3 -15 5 -3 9 1 9 9 0 17 -3 19 -12 6z"/>
<path d="M5120 3454 c-25 -15 -25 -15 -1 -8 16 4 21 3 17 -5 -4 -6 -14 -11
-22 -11 -8 0 -14 -5 -14 -10 0 -6 14 -3 33 6 41 21 40 19 25 32 -9 7 -20 6
-38 -4z"/>
<path d="M5065 3430 c-19 -8 -19 -9 3 -9 12 -1 22 4 22 9 0 6 -1 10 -2 9 -2 0
-12 -4 -23 -9z"/>
<path d="M5018 3289 c-10 -5 -18 -18 -18 -27 0 -14 2 -14 9 -3 7 11 10 10 14
-5 5 -17 6 -17 4 1 -1 11 2 26 6 33 10 14 8 15 -15 1z"/>
<path d="M5053 3265 c0 -8 4 -12 9 -9 5 3 6 10 3 15 -9 13 -12 11 -12 -6z"/>
<path d="M5071 3233 c8 -4 3 -10 -12 -18 -23 -13 -22 -13 8 -11 18 1 35 5 40
9 4 5 -1 5 -10 1 -12 -4 -17 -2 -15 6 2 7 -3 14 -10 16 -8 2 -9 1 -1 -3z"/>
<path d="M5128 3203 c7 -3 16 -2 19 1 4 3 -2 6 -13 5 -11 0 -14 -3 -6 -6z"/>
<path d="M5166 3169 c3 -5 9 -7 14 -4 4 3 11 0 13 -5 3 -6 4 -5 3 1 -1 7 -10
13 -19 15 -9 1 -15 -2 -11 -7z"/>
<path d="M5110 3036 c0 -2 7 -9 15 -16 13 -11 14 -10 9 4 -5 14 -24 23 -24 12z"/>
<path d="M5096 2913 c-6 -14 -5 -15 5 -6 7 7 10 15 7 18 -3 3 -9 -2 -12 -12z"/>
<path d="M5201 2680 c-1 -81 -14 -194 -46 -400 -7 -42 -6 -44 9 -29 10 9 23
50 31 95 20 108 30 350 17 394 -9 30 -10 22 -11 -60z"/>
<path d="M4972 2133 c-2 -38 1 -42 29 -52 80 -28 254 -22 254 9 0 13 -16 14
-96 11 -53 -2 -115 0 -137 4 -37 6 -41 10 -45 38 -3 28 -4 26 -5 -10z"/>
<path d="M5015 2161 c14 -14 249 -19 253 -6 1 6 -48 11 -130 13 -88 2 -129 -1
-123 -7z"/>
<path d="M5220 2025 c-19 -7 -48 -14 -65 -14 -23 -1 -27 -4 -15 -11 33 -21
117 -3 128 28 5 15 -3 14 -48 -3z"/>
<path d="M5542 3583 c-33 -49 -121 -209 -153 -278 -28 -62 -32 -92 -9 -69 16
17 121 207 160 292 38 81 39 108 2 55z"/>
<path d="M5489 3293 c-52 -61 -137 -218 -126 -230 9 -8 1 -18 87 115 44 70 68
118 63 123 -6 6 -15 3 -24 -8z"/>
<path d="M5480 3104 c-30 -19 -62 -34 -73 -34 -10 0 -15 -4 -12 -10 3 -5 14
-10 24 -10 26 0 142 62 138 74 -6 18 -22 14 -77 -20z"/>
<path d="M3823 3425 c0 -8 4 -12 9 -9 5 3 6 10 3 15 -9 13 -12 11 -12 -6z"/>
<path d="M3842 3270 c0 -19 2 -27 5 -17 2 9 2 25 0 35 -3 9 -5 1 -5 -18z"/>
<path d="M3590 2830 c-19 -35 -38 -220 -30 -290 12 -110 55 -230 81 -230 13 0
10 18 -22 130 -25 89 -38 329 -21 379 12 35 8 41 -8 11z"/>
<path d="M3646 2398 c7 -38 36 -88 41 -72 4 12 -33 104 -41 104 -3 0 -3 -15 0
-32z"/>
<path d="M3816 2317 c3 -10 9 -15 12 -12 3 3 0 11 -7 18 -10 9 -11 8 -5 -6z"/>
<path d="M3677 2256 c22 -17 83 -33 83 -23 0 3 -15 10 -32 15 -18 6 -42 13
-53 17 -18 7 -18 6 2 -9z"/>
<path d="M3553 2226 c25 -19 188 -49 201 -36 6 6 0 13 -16 19 -35 13 -135 31
-172 31 -28 -1 -29 -2 -13 -14z"/>
<path d="M3549 2166 c40 -48 132 -61 190 -25 43 26 35 33 -21 18 -44 -12 -110
-5 -163 17 -18 7 -19 6 -6 -10z"/>
<path d="M2600 3419 c0 -5 5 -7 10 -4 6 3 10 8 10 11 0 2 -4 4 -10 4 -5 0 -10
-5 -10 -11z"/>
</g>
</svg>
